<mxfile host="app.diagrams.net" modified="2024-09-26T05:12:53.594Z" agent="Mozilla/5.0 (X11; Linux x86_64) AppleWebKit/537.36 (KHTML, like Gecko) Chrome/129.0.0.0 Safari/537.36" etag="HEjANeuRRb3edn6XQswb" version="24.5.2" type="device">
  <diagram name="PÃ¡gina-1" id="huTBRmJO7ce4vJSjx6qD">
    <mxGraphModel dx="989" dy="515" grid="1" gridSize="10" guides="1" tooltips="1" connect="1" arrows="1" fold="1" page="1" pageScale="1" pageWidth="1169" pageHeight="827" math="0" shadow="0">
      <root>
        <mxCell id="0" />
        <mxCell id="1" parent="0" />
        <mxCell id="sVc92VA_0MJDI1F1OnL3-1" value="Airplane" style="swimlane;fontStyle=1;align=center;verticalAlign=top;childLayout=stackLayout;horizontal=1;startSize=26;horizontalStack=0;resizeParent=1;resizeParentMax=0;resizeLast=0;collapsible=1;marginBottom=0;whiteSpace=wrap;html=1;" vertex="1" parent="1">
          <mxGeometry x="210" y="150" width="160" height="350" as="geometry" />
        </mxCell>
        <mxCell id="sVc92VA_0MJDI1F1OnL3-2" value="&lt;b&gt;speed: int&lt;/b&gt;&lt;div&gt;&lt;div&gt;max_passengers: int&lt;/div&gt;&lt;div&gt;max_cargo: int&lt;/div&gt;&lt;div&gt;fuel: int&lt;/div&gt;&lt;div&gt;manufacturer: string&lt;/div&gt;&lt;div&gt;model: string&lt;/div&gt;&lt;div&gt;year: int&lt;/div&gt;&lt;div&gt;company: string&lt;/div&gt;&lt;/div&gt;&lt;div&gt;license: string&lt;/div&gt;" style="text;strokeColor=none;fillColor=none;align=left;verticalAlign=top;spacingLeft=4;spacingRight=4;overflow=hidden;rotatable=0;points=[[0,0.5],[1,0.5]];portConstraint=eastwest;whiteSpace=wrap;html=1;" vertex="1" parent="sVc92VA_0MJDI1F1OnL3-1">
          <mxGeometry y="26" width="160" height="144" as="geometry" />
        </mxCell>
        <mxCell id="sVc92VA_0MJDI1F1OnL3-3" value="" style="line;strokeWidth=1;fillColor=none;align=left;verticalAlign=middle;spacingTop=-1;spacingLeft=3;spacingRight=3;rotatable=0;labelPosition=right;points=[];portConstraint=eastwest;strokeColor=inherit;" vertex="1" parent="sVc92VA_0MJDI1F1OnL3-1">
          <mxGeometry y="170" width="160" height="8" as="geometry" />
        </mxCell>
        <mxCell id="sVc92VA_0MJDI1F1OnL3-4" value="&lt;b&gt;getSpeed(): int&lt;/b&gt;&lt;div&gt;&lt;b&gt;setSpeed(int)&lt;/b&gt;&lt;/div&gt;&lt;div&gt;getMaxPassengers(): int&lt;/div&gt;&lt;div&gt;getMaxCargo(): int&lt;/div&gt;&lt;div&gt;setFuel(int)&lt;/div&gt;&lt;div&gt;getFuel(): int&lt;/div&gt;&lt;div&gt;getManufacturer(): string&lt;/div&gt;&lt;div&gt;getModel(): string&lt;/div&gt;&lt;div&gt;getYear(): int&lt;/div&gt;&lt;div&gt;setCompany(string)&lt;/div&gt;&lt;div&gt;getCompany(): string&lt;/div&gt;&lt;div&gt;&lt;br&gt;&lt;/div&gt;" style="text;strokeColor=none;fillColor=none;align=left;verticalAlign=top;spacingLeft=4;spacingRight=4;overflow=hidden;rotatable=0;points=[[0,0.5],[1,0.5]];portConstraint=eastwest;whiteSpace=wrap;html=1;" vertex="1" parent="sVc92VA_0MJDI1F1OnL3-1">
          <mxGeometry y="178" width="160" height="172" as="geometry" />
        </mxCell>
      </root>
    </mxGraphModel>
  </diagram>
</mxfile>
